<svg id="Laag_1" data-name="Laag 1" xmlns="http://www.w3.org/2000/svg" viewBox="0 0 851 868.33"><defs><style>.cls-1{fill:none;stroke:#75767a;stroke-miterlimit:10;}.cls-2,.cls-4{fill:#75767a;}.cls-10,.cls-3,.cls-4,.cls-8{isolation:isolate;}.cls-4{font-size:16.06px;}.cls-4,.cls-8{font-family:SegoeUI, Segoe UI;}.cls-5{letter-spacing:-0.06em;}.cls-6{opacity:0;}.cls-7{fill:#a3a3a3;}.cls-10,.cls-8{font-size:18.89px;}.cls-10,.cls-12,.cls-8{fill:#fff;}.cls-9{letter-spacing:-0.06em;}.cls-10{font-family:SegoeUI-Bold, Segoe UI;font-weight:700;}.cls-11{fill:#f25555;}</style></defs><circle id="Ellipse_229" data-name="Ellipse 229" class="cls-1" cx="433.32" cy="438.54" r="413.24"/><circle id="Ellipse_230" data-name="Ellipse 230" class="cls-1" cx="433.32" cy="438.54" r="288.27"/><circle id="Ellipse_231" data-name="Ellipse 231" class="cls-1" cx="433.32" cy="438.54" r="145.38"/><circle id="Ellipse_232" data-name="Ellipse 232" class="cls-2" cx="146.63" cy="427.95" r="18.05"/><circle id="Ellipse_233" data-name="Ellipse 233" class="cls-2" cx="287.94" cy="427.95" r="18.05"/><circle id="Ellipse_234" data-name="Ellipse 234" class="cls-2" cx="21.77" cy="427.95" r="18.05"/><g id="Gemiddeld" class="cls-3"><text class="cls-4" transform="translate(395.29 142.71)">Gemiddeld</text></g><g id="Dichtbij" class="cls-3"><text class="cls-4" transform="translate(407.02 285.04)">Dichtbij</text></g><g id="Ver" class="cls-3"><text class="cls-4" transform="translate(422.71 18.23)"><tspan class="cls-5">V</tspan><tspan x="8.95" y="0">er</tspan></text></g><g id="Group_90" data-name="Group 90" class="cls-6"><path id="Path_27" data-name="Path 27" class="cls-7" d="M464.22,443.8a4.69,4.69,0,0,0-.45-2,4.15,4.15,0,0,0-.11-.48l-3.15-7.81,0-.07c-1.1-3.29-2.67-6.33-6.66-6.33H438.62c-4.08,0-5.52,3.12-6.65,6.31l-3.3,7.84a4.9,4.9,0,0,0-.75,2.56v2.43a4.53,4.53,0,0,0,.13,1.1,2,2,0,0,0-.13.69v7.23a1.94,1.94,0,0,0,1.92,1.93h4a1.91,1.91,0,0,0,1.92-1.92h0v-3.63h20.89v3.62a1.92,1.92,0,0,0,1.92,1.93h3.75a1.94,1.94,0,0,0,1.92-1.93V448a2,2,0,0,0-.13-.69,4.53,4.53,0,0,0,.13-1.1V443.8Zm-29.91-9.62c1.26-3.54,2.27-4.63,4.31-4.63h15.21c2,0,3.16,1.21,4.3,4.61l2.3,4.67a7,7,0,0,0-2.44-.44H434.16a7,7,0,0,0-2.23.36Zm2,13h-4.21a1.37,1.37,0,0,1-1.34-1.4h0a1.37,1.37,0,0,1,1.34-1.33h4.2a1.37,1.37,0,0,1,1.34,1.4h0A1.38,1.38,0,0,1,436.29,447.15Zm14.85-.27h-9.78a.87.87,0,0,1-.87-.87h0a.87.87,0,0,1,.87-.87h9.78a.87.87,0,0,1,0,1.74Zm8.82.27h-4.21a1.37,1.37,0,0,1,0-2.74H460a1.37,1.37,0,0,1,.07,2.74Z"/></g><circle id="Ellipse_240" data-name="Ellipse 240" class="cls-2" cx="433.03" cy="434.17" r="33.15"/><g id="Volvo_V90" data-name="Volvo V90" class="cls-3"><text class="cls-8" transform="translate(410.53 434.23)"><tspan class="cls-9">V</tspan><tspan x="10.53" y="0">olvo</tspan></text></g><g id="Group_176" data-name="Group 176"><circle id="Ellipse_240-2" data-name="Ellipse 240-2" cx="433.47" cy="434.61" r="36.26"/><g id="Audi_A3" data-name="Audi A3" class="cls-3"><text class="cls-10" transform="translate(411.9 430.68)">Audi </text><text class="cls-10" transform="translate(420.71 455.24)">A3</text></g></g><g id="Group_282" data-name="Group 282"><g id="Group_202" data-name="Group 202"><ellipse id="Ellipse_268" data-name="Ellipse 268" class="cls-11" cx="288.78" cy="426.64" rx="19.83" ry="19.36"/><g id="Group_200" data-name="Group 200"><path id="Path_196" data-name="Path 196" class="cls-12" d="M289,439.11a2.63,2.63,0,1,1,2.63-2.63,2.63,2.63,0,0,1-2.63,2.63"/><path id="Path_197" data-name="Path 197" class="cls-12" d="M291.6,428.6a2.63,2.63,0,1,1-5.25,0V415.47a2.63,2.63,0,0,1,5.25,0Z"/></g></g></g></svg>