<?xml version="1.0" encoding="utf-8"?>
<!-- Generator: Adobe Illustrator 25.1.0, SVG Export Plug-In . SVG Version: 6.00 Build 0)  -->
<svg version="1.1" id="Laag_1" xmlns="http://www.w3.org/2000/svg" xmlns:xlink="http://www.w3.org/1999/xlink" x="0px" y="0px"
	 viewBox="0 0 851 868.3" style="enable-background:new 0 0 851 868.3;" xml:space="preserve">
<style type="text/css">
	.st0{opacity:0;}
	.st1{fill:#C2C2C2;}
	.st2{fill:none;}
	.st3{fill:none;stroke:#75767A;stroke-miterlimit:10;}
	.st4{fill:#75767A;}
	.st5{fill:#3F3182;}
	.st6{fill:#A3A3A3;}
	.st7{fill:#CE000E;}
	.st8{fill:#F07763;}
	.st9{fill:#F25555;}
	.st10{fill:#FFFFFF;}
	.st11{font-family:'SegoeUI';}
	.st12{font-size:15.6244px;}
	.st13{font-size:18.3817px;}
	.st14{font-family:'SegoeUI-Bold';}
	.st15{fill:#CE000E;fill-opacity:0;}
	.st16{fill:#75767A;stroke:#000000;stroke-width:2;}
	.st17{fill:#AE78C1;}
	.st18{fill:#78B0C1;}
	.st19{fill:#FFB84E;}
	.st20{fill:#A5A5A5;}
	.st21{fill:#F38200;fill-opacity:0;}
	.st22{fill:#DDDDDD;}
	.st23{fill:#845FA9;}
	.st24{fill:#95969A;}
</style>
<g id="Group_105_1_" transform="translate(817.701 408.064)" class="st0">
	<rect id="Rectangle_77_1_" x="-499.9" y="-62" class="st1" width="107.8" height="27"/>
	<text transform="matrix(1 0 0 1 -474.5562 -42.7542)" class="st10 st11 st12">Sterren 40</text>
</g>
<circle id="Ellipse_99_1_" class="st2" cx="596.9" cy="503.5" r="43.5"/>
<circle id="Ellipse_100_1_" class="st2" cx="609.1" cy="147" r="43.5"/>
<circle id="Ellipse_105_10_" class="st3" cx="425.9" cy="443.2" r="142.2"/>
<g id="Group_165_1_" transform="translate(946.251 55.239)">
	<circle id="Ellipse_115_1_" class="st4" cx="-114.2" cy="409.9" r="17.7"/>
	<circle id="Ellipse_116_1_" class="st4" cx="-115" cy="373.9" r="17.7"/>
	<circle id="Ellipse_117_1_" class="st4" cx="-118.1" cy="336.9" r="17.7"/>
	<circle id="Ellipse_123_1_" class="st4" cx="-125.4" cy="484.1" r="17.7"/>
	<circle id="Ellipse_124_1_" class="st4" cx="-118.3" cy="446.9" r="17.7"/>
	<circle id="Ellipse_154_1_" class="st4" cx="-492.6" cy="-15.8" r="17.7"/>
	<circle id="Ellipse_159_1_" class="st4" cx="-349.9" cy="21.9" r="17.7"/>
	<circle id="Ellipse_160_1_" class="st4" cx="-205.2" cy="137.1" r="17.7"/>
	<circle id="Ellipse_161_1_" class="st4" cx="-229.4" cy="108.1" r="17.7"/>
	<circle id="Ellipse_162_1_" class="st4" cx="-255.4" cy="81.2" r="17.7"/>
	<circle id="Ellipse_163_1_" class="st4" cx="-284.4" cy="58.4" r="17.7"/>
	<circle id="Ellipse_164_1_" class="st4" cx="-316.5" cy="38.7" r="17.7"/>
	<circle id="Ellipse_165_1_" class="st4" cx="-384.3" cy="7.3" r="17.7"/>
	<circle id="Ellipse_166_1_" class="st4" cx="-420.5" cy="-3.7" r="17.7"/>
	<circle id="Ellipse_167_1_" class="st4" cx="-456.6" cy="-10.3" r="17.7"/>
	<circle id="Ellipse_168_1_" class="st4" cx="-180.3" cy="164.8" r="17.7"/>
	<circle id="Ellipse_169_1_" class="st4" cx="-126.3" cy="300.6" r="17.7"/>
	<circle id="Ellipse_170_1_" class="st4" cx="-134.1" cy="264.9" r="17.7"/>
	<circle id="Ellipse_171_1_" class="st4" cx="-160.3" cy="196.4" r="17.7"/>
	<circle id="Ellipse_172_1_" class="st4" cx="-148.5" cy="230.6" r="17.7"/>
</g>
<g id="Group_280_1_" transform="translate(-50)">
	<circle id="Ellipse_108_1_" class="st4" cx="303" cy="76.6" r="17.7"/>
	<circle id="Ellipse_109_1_" class="st4" cx="270.9" cy="96.3" r="17.7"/>
	<circle id="Ellipse_110_1_" class="st4" cx="211.9" cy="140.3" r="17.7"/>
	<circle id="Ellipse_111_1_" class="st4" cx="240.3" cy="115.9" r="17.7"/>
	<circle id="Ellipse_112_1_" class="st4" cx="183.3" cy="165.9" r="17.7"/>
	<circle id="Ellipse_113_1_" class="st4" cx="136.7" cy="224.6" r="17.7"/>
	<circle id="Ellipse_114_1_" class="st4" cx="116.4" cy="257" r="17.7"/>
	<circle id="Ellipse_144_1_" class="st4" cx="76.9" cy="506" r="17.7"/>
	<circle id="Ellipse_145_1_" class="st4" cx="84.8" cy="542.5" r="17.7"/>
	<circle id="Ellipse_148_1_" class="st4" cx="99.1" cy="288.8" r="17.7"/>
	<circle id="Ellipse_149_1_" class="st4" cx="86.9" cy="323.4" r="17.7"/>
	<circle id="Ellipse_150_1_" class="st4" cx="74.2" cy="396.2" r="17.7"/>
	<circle id="Ellipse_151_1_" class="st4" cx="77.9" cy="360.1" r="17.7"/>
	<circle id="Ellipse_152_1_" class="st4" cx="70.7" cy="432.6" r="17.7"/>
	<circle id="Ellipse_153_1_" class="st4" cx="72.2" cy="469.8" r="17.7"/>
	<circle id="Ellipse_155_1_" class="st4" cx="409.7" cy="44.2" r="17.7"/>
	<circle id="Ellipse_156_1_" class="st4" cx="446.6" cy="39.7" r="17.7"/>
	<circle id="Ellipse_157_1_" class="st4" cx="373.4" cy="51.6" r="17.7"/>
	<circle id="Ellipse_158_1_" class="st4" cx="338.8" cy="63.5" r="17.7"/>
	<circle id="Ellipse_173_1_" class="st4" cx="159.1" cy="193.1" r="17.7"/>
</g>
<g id="Group_218_1_" transform="translate(608.426 204.381)">
	<circle id="Ellipse_174_1_" class="st4" cx="-30.3" cy="5.9" r="17.7"/>
	<circle id="Ellipse_177_1_" class="st4" cx="94.4" cy="304.7" r="17.7"/>
	<circle id="Ellipse_178_1_" class="st4" cx="100.4" cy="217.8" r="17.7"/>
	<circle id="Ellipse_179_1_" class="st4" cx="80.3" cy="134.1" r="17.7"/>
	<circle id="Ellipse_180_1_" class="st4" cx="44.4" cy="73.2" r="17.7"/>
	<circle id="Ellipse_181_1_" class="st4" cx="-102.3" cy="-27.8" r="17.7"/>
	<circle id="Ellipse_182_1_" class="st4" cx="-279.5" cy="-24.6" r="17.7"/>
	<circle id="Ellipse_183_1_" class="st4" cx="-465.3" cy="225.4" r="17.7"/>
	<circle id="Ellipse_187_1_" class="st4" cx="-451.2" cy="159.1" r="17.7"/>
	<circle id="Ellipse_188_1_" class="st4" cx="-415.3" cy="80.8" r="17.7"/>
	<circle id="Ellipse_189_1_" class="st4" cx="-359.9" cy="15.6" r="17.7"/>
	<circle id="Ellipse_190_1_" class="st4" cx="-462" cy="290.6" r="17.7"/>
	<circle id="Ellipse_175_1_" class="st4" cx="-73" cy="494.9" r="17.7"/>
	<circle id="Ellipse_176_1_" class="st4" cx="56.4" cy="388.4" r="17.7"/>
	<circle id="Ellipse_184_1_" class="st4" cx="-389.2" cy="434.1" r="17.7"/>
	<circle id="Ellipse_185_1_" class="st4" cx="-265.6" cy="512.3" r="17.7"/>
	<circle id="Ellipse_186_1_" class="st4" cx="4.5" cy="452.5" r="17.7"/>
	<circle id="Ellipse_191_1_" class="st4" cx="-433.8" cy="369.9" r="17.7"/>
	<circle id="Ellipse_192_1_" class="st4" cx="-341.4" cy="477.5" r="17.7"/>
	<circle id="Ellipse_193_1_" class="st4" cx="-164.3" cy="524.3" r="17.7"/>
</g>
<g id="Group_98_5_" transform="translate(907.668 337.945)">
	<path id="Path_65_5_" class="st4" d="M-507.2-56.3h1.6v11h5.3v1.3h-6.9V-56.3z"/>
	<path id="Path_66_5_" class="st4" d="M-490.8-48.4c0,3.3-2.3,4.7-4.4,4.7c-2.4,0-4.3-1.8-4.3-4.6c0-3,1.9-4.7,4.4-4.7
		C-492.5-53-490.8-51.2-490.8-48.4z M-497.8-48.3c0,1.9,1.1,3.4,2.7,3.4c1.5,0,2.7-1.4,2.7-3.4c0-1.5-0.8-3.4-2.7-3.4
		C-497-51.8-497.8-50-497.8-48.3L-497.8-48.3z"/>
	<path id="Path_67_5_" class="st4" d="M-482.4-44.3c-0.8,0.4-1.7,0.5-2.5,0.5c-2.3,0.1-4.3-1.7-4.4-4c0-0.2,0-0.4,0-0.5
		c-0.1-2.5,1.8-4.6,4.3-4.7c0.2,0,0.3,0,0.5,0c0.8,0,1.5,0.1,2.2,0.5l-0.4,1.2c-0.6-0.3-1.2-0.4-1.9-0.4c-1.7,0-3.1,1.3-3.1,3
		c0,0.1,0,0.2,0,0.4c-0.2,1.7,1.1,3.2,2.8,3.3c0.1,0,0.2,0,0.3,0c0.7,0,1.4-0.1,2-0.4L-482.4-44.3z"/>
	<path id="Path_68_5_" class="st4" d="M-475.6-43.9l-0.1-1.1h-0.1c-0.6,0.9-1.6,1.3-2.7,1.3c-1.4,0.1-2.6-0.9-2.7-2.3
		c0-0.1,0-0.1,0-0.2c0-2.1,1.9-3.3,5.3-3.3v-0.2c0.1-1-0.6-1.9-1.6-2c-0.1,0-0.3,0-0.4,0c-0.8,0-1.6,0.2-2.3,0.7l-0.4-1.1
		c0.9-0.5,1.9-0.8,2.9-0.8c2.7,0,3.4,1.9,3.4,3.6v3.3c0,0.7,0,1.4,0.1,2.1L-475.6-43.9z M-475.9-48.5c-1.8,0-3.8,0.3-3.8,2
		c-0.1,0.8,0.5,1.5,1.3,1.5c0.1,0,0.1,0,0.2,0c1,0,1.8-0.6,2.1-1.5c0.1-0.2,0.1-0.3,0.1-0.5L-475.9-48.5z"/>
	<path id="Path_69_5_" class="st4" d="M-469.8-55.3v2.5h2.3v1.2h-2.3v4.8c0,1.1,0.3,1.7,1.2,1.7c0.3,0,0.6,0,0.9-0.1l0.1,1.2
		c-0.5,0.2-0.9,0.2-1.4,0.2c-0.7,0-1.3-0.2-1.7-0.7c-0.5-0.7-0.7-1.5-0.6-2.3v-4.8h-1.4v-1.2h1.4v-2.1L-469.8-55.3z"/>
	<path id="Path_70_5_" class="st4" d="M-463.9-55.3c0,0.5-0.4,1-0.9,1c0,0-0.1,0-0.1,0c-0.5,0-1-0.4-1-0.9c0,0,0,0,0,0
		c0-0.5,0.4-1,1-1c0,0,0,0,0.1,0C-464.4-56.3-463.9-55.9-463.9-55.3C-463.9-55.3-463.9-55.3-463.9-55.3z M-465.7-43.9v-8.9h1.6v8.9
		H-465.7z"/>
	<path id="Path_71_5_" class="st4" d="M-460.5-48.1c-0.1,1.6,1,2.9,2.6,3.1c0.2,0,0.3,0,0.5,0c0.8,0,1.7-0.1,2.5-0.5l0.3,1.2
		c-0.9,0.4-1.9,0.6-2.9,0.6c-2.7,0-4.4-1.8-4.4-4.5s1.6-4.8,4.2-4.8c2.9,0,3.7,2.5,3.7,4.2c0,0.3,0,0.5-0.1,0.7L-460.5-48.1z
		 M-455.8-49.2c0-1-0.4-2.6-2.2-2.6c-1.6,0-2.3,1.5-2.5,2.6H-455.8z"/>
</g>
<g id="Group_87_1_" transform="translate(1001.249 617.909)">
	<g id="Group_1_1_">
		<path id="Path_1_1_" class="st6" d="M-496-76.5l-15.8-2.4c-0.7-0.1-1.5,0.1-2,0.6c-0.6,0.5-0.9,1.2-0.9,1.9v30.3
			c0,0.8,0.6,1.4,1.4,1.4h4.7v-7.5c0-1.4,1.1-2.5,2.5-2.5c0,0,0,0,0,0h3.6c1.4,0,2.5,1.1,2.5,2.5l0,0v7.6h6.1V-74
			C-493.9-75.3-494.8-76.3-496-76.5z M-506.8-58h-2.2c-0.6,0-1.1-0.5-1.1-1.1c0-0.6,0.5-1.1,1.1-1.1c0,0,0,0,0,0h2.2
			c0.6,0,1.1,0.5,1.1,1.1l0,0C-505.8-58.5-506.2-58-506.8-58C-506.8-58-506.8-58-506.8-58L-506.8-58z M-506.8-62.3h-2.2
			c-0.6,0-1.1-0.5-1.1-1.1l0,0c0-0.6,0.5-1.1,1.1-1.1h2.2c0.6,0,1.1,0.5,1.1,1.1C-505.8-62.8-506.2-62.3-506.8-62.3
			C-506.8-62.3-506.8-62.3-506.8-62.3L-506.8-62.3z M-506.8-66.6h-2.2c-0.6,0-1.1-0.5-1.1-1.1c0-0.6,0.5-1.1,1.1-1.1c0,0,0,0,0,0
			h2.2c0.6,0,1.1,0.5,1.1,1.1l0,0C-505.8-67.1-506.2-66.6-506.8-66.6C-506.8-66.6-506.8-66.6-506.8-66.6L-506.8-66.6z M-506.8-70.9
			h-2.2c-0.6,0-1.1-0.5-1.1-1.1l0,0c0-0.6,0.5-1.1,1.1-1.1h2.2c0.6,0,1.1,0.5,1.1,1.1C-505.8-71.4-506.2-70.9-506.8-70.9
			C-506.8-70.9-506.8-70.9-506.8-70.9L-506.8-70.9z M-499.7-58h-2.2c-0.6,0-1.1-0.5-1.1-1.1c0-0.6,0.5-1.1,1.1-1.1c0,0,0,0,0,0h2.2
			c0.6,0,1.1,0.5,1.1,1.1l0,0C-498.6-58.5-499.1-58-499.7-58L-499.7-58z M-499.7-62.3h-2.2c-0.6,0-1.1-0.5-1.1-1.1l0,0
			c0-0.6,0.5-1.1,1.1-1.1h2.2c0.6,0,1.1,0.5,1.1,1.1C-498.6-62.8-499.1-62.3-499.7-62.3L-499.7-62.3z M-499.7-66.6h-2.2
			c-0.6,0-1.1-0.5-1.1-1.1c0-0.6,0.5-1.1,1.1-1.1c0,0,0,0,0,0h2.2c0.6,0,1.1,0.5,1.1,1.1l0,0C-498.6-67.1-499.1-66.6-499.7-66.6
			L-499.7-66.6z M-499.7-70.9h-2.2c-0.6,0-1.1-0.5-1.1-1.1l0,0c0-0.6,0.5-1.1,1.1-1.1h2.2c0.6,0,1.1,0.5,1.1,1.1
			C-498.6-71.4-499.1-70.9-499.7-70.9L-499.7-70.9z"/>
		<path id="Path_2_1_" class="st6" d="M-482.2-63.6l-10.2-2.1v21.1h9.7c1.4,0,2.5-1.1,2.5-2.5v-13.9
			C-480.3-62.4-481.1-63.4-482.2-63.6z M-485.6-49h-2.2c-0.6,0-1.1-0.5-1.1-1.1c0-0.6,0.5-1.1,1.1-1.1c0,0,0,0,0,0h2.2
			c0.6,0,1.1,0.5,1.1,1.1l0,0C-484.6-49.5-485.1-49-485.6-49C-485.6-49-485.6-49-485.6-49L-485.6-49z M-485.6-53.3h-2.2
			c-0.6,0-1.1-0.5-1.1-1.1l0,0c0-0.6,0.5-1.1,1.1-1.1h2.2c0.6,0,1.1,0.5,1.1,1.1C-484.6-53.8-485-53.3-485.6-53.3
			C-485.6-53.3-485.6-53.3-485.6-53.3L-485.6-53.3z M-485.6-57.7h-2.2c-0.6,0-1.1-0.5-1.1-1.1c0-0.6,0.5-1.1,1.1-1.1c0,0,0,0,0,0
			h2.2c0.6,0,1.1,0.5,1.1,1.1l0,0C-484.6-58.1-485.1-57.7-485.6-57.7C-485.6-57.7-485.6-57.7-485.6-57.7L-485.6-57.7z"/>
	</g>
</g>
<text transform="matrix(1 0 0 1 392.8635 149.6828)" class="st4 st11 st12">Managers</text>
<text transform="matrix(1 0 0 1 383.9387 17.4587)" class="st4 st11 st12">Werknemers</text>
<g id="Group_104_1_" transform="translate(995.55 245.351)" class="st0">
	<rect id="Rectangle_77-2_1_" x="-514.3" y="-48.8" class="st7" width="107.8" height="27"/>
	<text transform="matrix(1 0 0 1 -494.2792 -29.5891)" class="st10 st11 st12">Steven King</text>
</g>
<g id="Group_106_1_" transform="translate(912.301 777.952)" class="st0">
	<rect id="Rectangle_77-3_1_" x="-507.5" y="-91.9" class="st7" width="140" height="27"/>
	<text transform="matrix(1 0 0 1 -494.1543 -72.6833)" class="st10 st11 st12">Gerald Cambrault</text>
</g>
<g id="Group_87-2_1_" transform="translate(997.465 354.919)">
	<g id="Group_1-2_1_">
		<path id="Path_1-2_1_" class="st6" d="M-495.7-55.2l-15.8-2.4c-0.7-0.1-1.5,0.1-2,0.6c-0.6,0.5-0.9,1.2-0.9,1.9v30.3
			c0,0.8,0.6,1.4,1.4,1.4h4.7V-31c0-1.4,1.1-2.5,2.5-2.5c0,0,0,0,0,0h3.6c1.4,0,2.5,1.1,2.5,2.5l0,0v7.6h6.1v-29.3
			C-493.6-54-494.5-55-495.7-55.2z M-506.5-36.7h-2.2c-0.6,0-1.1-0.5-1.1-1.1c0-0.6,0.5-1.1,1.1-1.1c0,0,0,0,0,0h2.2
			c0.6,0,1.1,0.5,1.1,1.1l0,0C-505.5-37.2-505.9-36.7-506.5-36.7C-506.5-36.7-506.5-36.7-506.5-36.7L-506.5-36.7z M-506.5-41h-2.2
			c-0.6,0-1.1-0.5-1.1-1.1l0,0c0-0.6,0.5-1.1,1.1-1.1h2.2c0.6,0,1.1,0.5,1.1,1.1C-505.5-41.5-505.9-41-506.5-41
			C-506.5-41-506.5-41-506.5-41L-506.5-41z M-506.5-45.4h-2.2c-0.6,0-1.1-0.5-1.1-1.1c0-0.6,0.5-1.1,1.1-1.1c0,0,0,0,0,0h2.2
			c0.6,0,1.1,0.5,1.1,1.1l0,0C-505.5-45.8-505.9-45.4-506.5-45.4C-506.5-45.4-506.5-45.4-506.5-45.4L-506.5-45.4z M-506.5-49.7h-2.2
			c-0.6,0-1.1-0.5-1.1-1.1l0,0c0-0.6,0.5-1.1,1.1-1.1h2.2c0.6,0,1.1,0.5,1.1,1.1C-505.5-50.1-505.9-49.7-506.5-49.7
			C-506.5-49.7-506.5-49.7-506.5-49.7L-506.5-49.7z M-499.4-36.7h-2.2c-0.6,0-1.1-0.5-1.1-1.1c0-0.6,0.5-1.1,1.1-1.1c0,0,0,0,0,0
			h2.2c0.6,0,1.1,0.5,1.1,1.1l0,0C-498.3-37.2-498.8-36.7-499.4-36.7L-499.4-36.7z M-499.4-41h-2.2c-0.6,0-1.1-0.5-1.1-1.1l0,0
			c0-0.6,0.5-1.1,1.1-1.1h2.2c0.6,0,1.1,0.5,1.1,1.1C-498.3-41.5-498.8-41-499.4-41L-499.4-41z M-499.4-45.4h-2.2
			c-0.6,0-1.1-0.5-1.1-1.1c0-0.6,0.5-1.1,1.1-1.1c0,0,0,0,0,0h2.2c0.6,0,1.1,0.5,1.1,1.1l0,0C-498.3-45.8-498.8-45.4-499.4-45.4
			L-499.4-45.4z M-499.4-49.7h-2.2c-0.6,0-1.1-0.5-1.1-1.1l0,0c0-0.6,0.5-1.1,1.1-1.1h2.2c0.6,0,1.1,0.5,1.1,1.1
			C-498.3-50.1-498.8-49.7-499.4-49.7L-499.4-49.7z"/>
		<path id="Path_2-2_1_" class="st6" d="M-481.9-42.3l-10.2-2.1v21.1h9.7c1.4,0,2.5-1.1,2.5-2.5v-13.9
			C-479.9-41.1-480.8-42.1-481.9-42.3z M-485.3-27.8h-2.2c-0.6,0-1.1-0.5-1.1-1.1c0-0.6,0.5-1.1,1.1-1.1c0,0,0,0,0,0h2.2
			c0.6,0,1.1,0.5,1.1,1.1l0,0C-484.3-28.2-484.7-27.8-485.3-27.8C-485.3-27.8-485.3-27.8-485.3-27.8L-485.3-27.8z M-485.3-32.1h-2.2
			c-0.6,0-1.1-0.5-1.1-1.1l0,0c0-0.6,0.5-1.1,1.1-1.1h2.2c0.6,0,1.1,0.5,1.1,1.1C-484.3-32.5-484.7-32.1-485.3-32.1
			C-485.3-32.1-485.3-32.1-485.3-32.1L-485.3-32.1z M-485.3-36.4h-2.2c-0.6,0-1.1-0.5-1.1-1.1c0-0.6,0.5-1.1,1.1-1.1c0,0,0,0,0,0
			h2.2c0.6,0,1.1,0.5,1.1,1.1l0,0C-484.3-36.9-484.7-36.4-485.3-36.4C-485.3-36.4-485.3-36.4-485.3-36.4L-485.3-36.4z"/>
	</g>
</g>
<g id="Group_104-2_1_" transform="translate(995.55 245.351)" class="st0">
	<rect id="Rectangle_77-4_1_" x="-514.3" y="-48.8" class="st7" width="107.8" height="27"/>
	<text transform="matrix(1 0 0 1 -494.2792 -29.5891)" class="st10 st11 st12">Steven King</text>
</g>
<g id="Group_106-2_1_" transform="translate(1125.152 781.736)" class="st0">
	<rect id="Rectangle_77-5_1_" x="-524.8" y="-92.2" class="st8" width="140" height="27"/>
	<text transform="matrix(1 0 0 1 -511.3773 -72.9907)" class="st10 st11 st12">Gerald Cambrault</text>
</g>
<circle id="Ellipse_240_14_" class="st4" cx="425.3" cy="439.4" r="32.4"/>
<text transform="matrix(1 0 0 1 399.0159 445.4314)" class="st10 st11 st13">Bedrijf</text>
<g id="Group_177_5_" transform="translate(896.481 471.447)">
	<circle id="Ellipse_240-2_10_" cx="-470.8" cy="-31.6" r="35.5"/>
	<text transform="matrix(1 0 0 1 -500.4495 -25.146)" class="st10 st14 st13">Bedrijf</text>
</g>
<g id="Group_306_1_">
	<circle id="Ellipse_103_10_" class="st3" cx="425.9" cy="443.2" r="404.3"/>
	<circle id="Ellipse_104_10_" class="st3" cx="425.9" cy="443.2" r="282"/>
	<circle id="Ellipse_119_1_" class="st4" cx="759.6" cy="673.3" r="17.7"/>
	<circle id="Ellipse_128_1_" class="st4" cx="684.6" cy="755.9" r="17.7"/>
	<g id="Group_307_1_">
		<circle id="Ellipse_118_1_" class="st4" cx="736.6" cy="703.7" r="17.7"/>
		<circle id="Ellipse_106_1_" class="st4" cx="140.7" cy="734.1" r="17.7"/>
		<circle id="Ellipse_107_1_" class="st4" cx="116.8" cy="706.9" r="17.7"/>
		<circle id="Ellipse_120_1_" class="st4" cx="782" cy="643.9" r="17.7"/>
		<circle id="Ellipse_121_1_" class="st4" cx="797.9" cy="610.6" r="17.7"/>
		<circle id="Ellipse_125_1_" class="st4" cx="586.9" cy="815.2" r="17.7"/>
		<circle id="Ellipse_126_1_" class="st4" cx="621.3" cy="797.7" r="17.7"/>
		<circle id="Ellipse_127_1_" class="st4" cx="653.1" cy="778.7" r="17.7"/>
		<circle id="Ellipse_129_1_" class="st4" cx="711.6" cy="731.2" r="17.7"/>
		<circle id="Ellipse_130_1_" class="st4" cx="170.4" cy="756.4" r="17.7"/>
		<circle id="Ellipse_131_1_" class="st4" cx="229.5" cy="800.7" r="17.7"/>
		<circle id="Ellipse_132_1_" class="st4" cx="199.8" cy="780.1" r="17.7"/>
		<circle id="Ellipse_133_1_" class="st4" cx="263.1" cy="814.6" r="17.7"/>
		<circle id="Ellipse_134_1_" class="st4" cx="297.6" cy="827.6" r="17.7"/>
		<circle id="Ellipse_135_1_" class="st4" cx="369.1" cy="844.7" r="17.7"/>
		<circle id="Ellipse_136_1_" class="st4" cx="333.2" cy="837.1" r="17.7"/>
		<circle id="Ellipse_137_1_" class="st4" cx="406.2" cy="849.5" r="17.7"/>
		<circle id="Ellipse_138_1_" class="st4" cx="443" cy="849.4" r="17.7"/>
		<circle id="Ellipse_139_1_" class="st4" cx="479.1" cy="844.9" r="17.7"/>
		<circle id="Ellipse_140_1_" class="st4" cx="517.2" cy="839" r="17.7"/>
		<circle id="Ellipse_141_1_" class="st4" cx="552.7" cy="829.1" r="17.7"/>
		<circle id="Ellipse_142_1_" class="st4" cx="74.6" cy="646" r="17.7"/>
		<circle id="Ellipse_143_1_" class="st4" cx="95.3" cy="677.6" r="17.7"/>
		<circle id="Ellipse_147_1_" class="st4" cx="56.5" cy="613.4" r="17.7"/>
	</g>
</g>
</svg>
