<svg id="Laag_1" data-name="Laag 1" xmlns="http://www.w3.org/2000/svg" viewBox="0 0 851 868.33"><defs><style>.cls-1{fill:none;stroke:#75767a;stroke-miterlimit:10;}.cls-2{fill:#ae78c1;}.cls-3{fill:#78b0c1;}.cls-4{fill:#ffb84e;}.cls-5{fill:#a5a5a5;}.cls-6{fill:#f38200;fill-opacity:0;}.cls-7{fill:#ddd;}.cls-8{fill:#75767a;}.cls-10,.cls-9{isolation:isolate;}.cls-10{font-size:18.66px;fill:#fff;font-family:SegoeUI-Bold, Segoe UI;font-weight:700;}.cls-11{letter-spacing:-0.01em;}.cls-12{fill:#845fa9;}</style></defs><circle id="Ellipse_103" data-name="Ellipse 103" class="cls-1" cx="428.61" cy="440.04" r="408.29"/><circle id="Ellipse_104" data-name="Ellipse 104" class="cls-1" cx="428.61" cy="440.04" r="284.82"/><circle id="Ellipse_105" data-name="Ellipse 105" class="cls-1" cx="428.61" cy="440.04" r="143.64"/><circle id="Ellipse_106" data-name="Ellipse 106" class="cls-2" cx="140.57" cy="733.79" r="17.84"/><circle id="Ellipse_109" data-name="Ellipse 109" class="cls-3" cx="221.59" cy="89.66" r="17.84"/><circle id="Ellipse_118" data-name="Ellipse 118" class="cls-2" cx="742.38" cy="703.06" r="17.84"/><circle id="Ellipse_119" data-name="Ellipse 119" class="cls-2" cx="765.57" cy="672.4" r="17.84"/><circle id="Ellipse_127" data-name="Ellipse 127" class="cls-4" cx="658.07" cy="778.86" r="17.84"/><circle id="Ellipse_128" data-name="Ellipse 128" class="cls-5" cx="689.83" cy="755.81" r="17.84"/><circle id="Ellipse_129" data-name="Ellipse 129" class="cls-5" cx="717.14" cy="730.91" r="17.84"/><circle id="Ellipse_130" data-name="Ellipse 130" class="cls-2" cx="170.62" cy="756.36" r="17.84"/><circle id="Ellipse_146" data-name="Ellipse 146" class="cls-2" cx="42.14" cy="577.53" r="17.84"/><circle id="Ellipse_147" data-name="Ellipse 147" class="cls-3" cx="55.51" cy="611.96" r="17.84"/><circle id="Ellipse_149" data-name="Ellipse 149" class="cls-2" cx="35.76" cy="319.05" r="17.84"/><circle id="Ellipse_151" data-name="Ellipse 151" class="cls-4" cx="26.63" cy="356.1" r="17.84"/><circle id="Ellipse_154" data-name="Ellipse 154" class="cls-6" cx="385.48" cy="444.09" r="17.84"/><circle id="Ellipse_155" data-name="Ellipse 155" class="cls-2" cx="344.17" cy="37.93" r="17.84"/><circle id="Ellipse_156" data-name="Ellipse 156" class="cls-2" cx="385.81" cy="31.64" r="17.84"/><circle id="Ellipse_165" data-name="Ellipse 165" class="cls-7" cx="566.02" cy="55.64" r="17.84"/><circle id="Ellipse_166" data-name="Ellipse 166" class="cls-6" cx="458.33" cy="444.09" r="17.84"/><circle id="Ellipse_167" data-name="Ellipse 167" class="cls-6" cx="421.84" cy="444.09" r="17.84"/><circle id="Ellipse_169" data-name="Ellipse 169" class="cls-3" cx="826.55" cy="351.84" r="17.84"/><circle id="Ellipse_170" data-name="Ellipse 170" class="cls-2" cx="818.66" cy="315.76" r="17.84"/><circle id="Ellipse_174" data-name="Ellipse 174" class="cls-4" cx="582.34" cy="204.77" r="17.84"/><circle id="Ellipse_242" data-name="Ellipse 242" class="cls-4" cx="539.32" cy="347.89" r="17.84"/><circle id="Ellipse_175" data-name="Ellipse 175" class="cls-3" cx="482.19" cy="569.6" r="17.84"/><circle id="Ellipse_176" data-name="Ellipse 176" class="cls-3" cx="669.87" cy="591.11" r="17.84"/><circle id="Ellipse_177" data-name="Ellipse 177" class="cls-3" cx="708.29" cy="506.6" r="17.84"/><circle id="Ellipse_236" data-name="Ellipse 236" class="cls-2" cx="308.77" cy="518.89" r="17.84"/><circle id="Ellipse_181" data-name="Ellipse 181" class="cls-4" cx="509.63" cy="170.74" r="17.84"/><circle id="Ellipse_235" data-name="Ellipse 235" class="cls-2" cx="330.73" cy="331.87" r="17.84"/><circle id="Ellipse_239" data-name="Ellipse 239" class="cls-4" cx="501.73" cy="444.09" r="32.76"/><circle id="Ellipse_240" data-name="Ellipse 240" class="cls-3" cx="428.85" cy="444.09" r="32.76"/><circle id="Ellipse_241" data-name="Ellipse 241" class="cls-2" cx="357.72" cy="444.09" r="32.76"/><path id="Path_291" data-name="Path 291" class="cls-3" d="M330.73,156.2A17.84,17.84,0,1,1,312.89,174h0A17.84,17.84,0,0,1,330.73,156.2Z"/><circle id="Ellipse_183" data-name="Ellipse 183" class="cls-4" cx="143.04" cy="426.48" r="17.84"/><circle id="Ellipse_184" data-name="Ellipse 184" class="cls-4" cx="219.87" cy="637.21" r="17.84"/><circle id="Ellipse_185" data-name="Ellipse 185" class="cls-4" cx="344.72" cy="716.23" r="17.84"/><g id="Group_107" data-name="Group 107"><path id="Path_93" data-name="Path 93" class="cls-8" d="M413.48,26.18l-3.17-12.49H412L413.49,20c.38,1.55.71,3.11.93,4.31h0c.2-1.24.59-2.72,1-4.33l1.67-6.3h1.68L420.36,20c.35,1.48.68,3,.87,4.28h0c.26-1.38.62-2.76,1-4.32l1.65-6.3h1.65L422,26.18h-1.68l-1.58-6.51A35.3,35.3,0,0,1,418,15.6h0a40.75,40.75,0,0,1-1,4.07l-1.78,6.51Z"/><path id="Path_94" data-name="Path 94" class="cls-8" d="M427.37,22A2.87,2.87,0,0,0,430,25.1h.47a5.85,5.85,0,0,0,2.48-.46l.28,1.16a7.09,7.09,0,0,1-3,.56,4.16,4.16,0,0,1-4.41-4.52c0-2.7,1.59-4.84,4.2-4.84,2.93,0,3.71,2.58,3.71,4.23a4.87,4.87,0,0,1-.06.76Zm4.78-1.17a2.32,2.32,0,0,0-2.26-2.65,2.7,2.7,0,0,0-2.5,2.65Z"/><path id="Path_95" data-name="Path 95" class="cls-8" d="M435.75,20c0-1.06,0-2-.08-2.8h1.43l.06,1.76h.07a2.7,2.7,0,0,1,2.48-2,1.84,1.84,0,0,1,.47.06V18.6a2.6,2.6,0,0,0-.56-.06,2.3,2.3,0,0,0-2.19,2.1,4.77,4.77,0,0,0-.07.76v4.78h-1.61Z"/><path id="Path_96" data-name="Path 96" class="cls-8" d="M443.5,21.32h0c.22-.31.53-.7.79-1L447,17.21h2l-3.47,3.69,4,5.28h-2l-3.1-4.3-.83.93v3.37h-1.61V13h1.61Z"/></g><g id="Group_108" data-name="Group 108"><path id="Path_97" data-name="Path 97" class="cls-8" d="M398.71,152l-4.08-12.49h1.74l1.95,6.15c.54,1.68,1,3.2,1.33,4.67h0c.35-1.45.87-3,1.43-4.65l2.11-6.17H405L400.49,152Z"/><path id="Path_98" data-name="Path 98" class="cls-8" d="M406,145.79c0-1,0-2-.07-2.79h1.42l.06,1.75h.08a2.66,2.66,0,0,1,2.48-1.95,1.44,1.44,0,0,1,.46,0v1.54a2.6,2.6,0,0,0-.56-.06,2.29,2.29,0,0,0-2.18,2.1,4.78,4.78,0,0,0-.08.76V152H406Z"/><path id="Path_99" data-name="Path 99" class="cls-8" d="M413.92,140.47a1,1,0,1,1-2,0,1,1,0,0,1,1-1h.05a1,1,0,0,1,1,.93ZM412.1,152v-9h1.63v9Z"/><path id="Path_100" data-name="Path 100" class="cls-8" d="M417.35,147.78a2.87,2.87,0,0,0,2.61,3.11,3.68,3.68,0,0,0,.47,0,5.74,5.74,0,0,0,2.48-.47l.28,1.17a7.13,7.13,0,0,1-3,.56,4.16,4.16,0,0,1-4.41-4.52c0-2.71,1.59-4.84,4.21-4.84,2.92,0,3.7,2.58,3.7,4.23a6.61,6.61,0,0,1-.05.76Zm4.78-1.17c0-1-.43-2.65-2.27-2.65a2.71,2.71,0,0,0-2.5,2.65Z"/><path id="Path_101" data-name="Path 101" class="cls-8" d="M425.72,145.42c0-.92,0-1.68-.07-2.42h1.44l.1,1.48h0a3.31,3.31,0,0,1,3-1.69c1.24,0,3.17.75,3.17,3.82V152h-1.63v-5.18c0-1.44-.54-2.65-2.08-2.65a2.32,2.32,0,0,0-2.18,1.67,2.22,2.22,0,0,0-.11.76V152h-1.63Z"/><path id="Path_102" data-name="Path 102" class="cls-8" d="M443.76,138.81v10.84c0,.79,0,1.7.07,2.31h-1.46l-.07-1.55h0a3.35,3.35,0,0,1-3.06,1.76c-2.16,0-3.83-1.84-3.83-4.56,0-3,1.83-4.82,4-4.82a3,3,0,0,1,2.7,1.37h0v-5.35Zm-1.63,7.83a3.08,3.08,0,0,0-.07-.68,2.42,2.42,0,0,0-2.36-1.89c-1.69,0-2.68,1.48-2.68,3.46,0,1.82.88,3.32,2.64,3.32a2.45,2.45,0,0,0,2.4-1.94,3.35,3.35,0,0,0,.07-.71Z"/><path id="Path_103" data-name="Path 103" class="cls-8" d="M447.38,147.78a2.87,2.87,0,0,0,2.61,3.11,3.68,3.68,0,0,0,.47,0,5.71,5.71,0,0,0,2.48-.47l.28,1.17a7.09,7.09,0,0,1-3,.56,4.16,4.16,0,0,1-4.41-4.52c0-2.71,1.59-4.84,4.2-4.84,2.93,0,3.71,2.58,3.71,4.23a5,5,0,0,1-.06.76Zm4.78-1.17A2.32,2.32,0,0,0,449.9,144a2.7,2.7,0,0,0-2.5,2.65Z"/><path id="Path_104" data-name="Path 104" class="cls-8" d="M455.76,145.42c0-.92,0-1.68-.07-2.42h1.44l.1,1.48h0a3.31,3.31,0,0,1,3-1.69c1.24,0,3.17.75,3.17,3.82V152h-1.63v-5.18c0-1.44-.54-2.65-2.08-2.65a2.33,2.33,0,0,0-2.19,1.67,2.85,2.85,0,0,0-.11.76V152h-1.63Z"/></g><g id="Group_109" data-name="Group 109"><path id="Path_105" data-name="Path 105" class="cls-8" d="M403.57,278.89h6.73v1.36h-5.12v4.15h4.73v1.33h-4.73v5.65h-1.61Z"/><path id="Path_106" data-name="Path 106" class="cls-8" d="M416.68,291.38l-.13-1.13h-.06a3.36,3.36,0,0,1-2.74,1.34,2.57,2.57,0,0,1-2.74-2.36c0-.07,0-.15,0-.22,0-2.17,1.93-3.36,5.4-3.33v-.19a1.85,1.85,0,0,0-1.6-2.07,2.14,2.14,0,0,0-.44,0,4.57,4.57,0,0,0-2.33.67l-.38-1.07a5.57,5.57,0,0,1,3-.8c2.74,0,3.41,1.87,3.41,3.67v3.36a12.76,12.76,0,0,0,.15,2.14Zm-.25-4.57c-1.78,0-3.79.28-3.79,2a1.43,1.43,0,0,0,1.32,1.55h.21a2.22,2.22,0,0,0,2.17-1.5,1.84,1.84,0,0,0,.1-.52Z"/><path id="Path_107" data-name="Path 107" class="cls-8" d="M420.64,284.84c0-.92,0-1.68-.07-2.42H422l.07,1.44h.06a3.08,3.08,0,0,1,2.81-1.65,2.66,2.66,0,0,1,2.54,1.8h0a3.87,3.87,0,0,1,1-1.17,3.14,3.14,0,0,1,2-.63c1.19,0,2.95.78,2.95,3.89v5.29h-1.59v-5.08c0-1.72-.63-2.76-1.95-2.76A2.11,2.11,0,0,0,428,285a2.81,2.81,0,0,0-.13.82v5.54h-1.59V286c0-1.42-.63-2.46-1.87-2.46a2.21,2.21,0,0,0-2,1.63,2.13,2.13,0,0,0-.13.8v5.41h-1.6Z"/><path id="Path_108" data-name="Path 108" class="cls-8" d="M437.93,279.89a1,1,0,0,1-2,0,1,1,0,0,1,1-1h.06a1,1,0,0,1,1,.93Zm-1.82,11.49v-9h1.63v9Z"/><path id="Path_109" data-name="Path 109" class="cls-8" d="M440.45,278.23h1.63v13.15h-1.63Z"/><path id="Path_110" data-name="Path 110" class="cls-8" d="M446.64,279.89a1,1,0,0,1-2,0,1,1,0,0,1,1-1h.05a1,1,0,0,1,1,.93Zm-1.81,11.49v-9h1.63v9Z"/><path id="Path_111" data-name="Path 111" class="cls-8" d="M450.07,287.2a2.88,2.88,0,0,0,2.62,3.11h.46a5.86,5.86,0,0,0,2.48-.47l.28,1.17a7.24,7.24,0,0,1-3,.55,4.16,4.16,0,0,1-4.41-4.52c0-2.7,1.59-4.83,4.2-4.83,2.93,0,3.71,2.57,3.71,4.22a4.77,4.77,0,0,1-.06.76Zm4.78-1.17a2.32,2.32,0,0,0-2.26-2.65,2.7,2.7,0,0,0-2.5,2.65Z"/></g><g id="Pietje" class="cls-9"><text class="cls-10" transform="translate(476.73 451.17)">Pietje</text></g><g id="Jan" class="cls-9"><text class="cls-10" transform="translate(413.88 451.17)"><tspan class="cls-11">J</tspan><tspan x="8.13" y="0">an</tspan></text></g><g id="Klaas" class="cls-9"><text class="cls-10" transform="translate(334.64 451.17)">Klaas</text></g><path id="Path_114" data-name="Path 114" class="cls-4" d="M690.11,773.65c-10.1,0-18.4-8.06-18.4-17.84S680,738,690.11,738Z"/><path id="Path_119" data-name="Path 119" class="cls-3" d="M213.85,268.26c-10.1,0-18.4-8.05-18.4-17.84s8.3-17.83,18.4-17.83Z"/><path id="Path_115" data-name="Path 115" class="cls-3" d="M689.27,738c10.1,0,18.4,8,18.4,17.83s-8.3,17.84-18.4,17.84Z"/><path id="Path_120" data-name="Path 120" class="cls-12" d="M213,232.59c10.1,0,18.4,8,18.4,17.83s-8.3,17.84-18.4,17.84Z"/><circle id="Ellipse_269" data-name="Ellipse 269" class="cls-3" cx="693.66" cy="340.95" r="17.84"/><circle id="Ellipse_270" data-name="Ellipse 270" class="cls-2" cx="77.06" cy="226.21" r="17.84"/><g id="Group_123" data-name="Group 123"><path id="Path_116" data-name="Path 116" class="cls-3" d="M734.27,740.16A18.93,18.93,0,0,0,718.85,711l-.05,17.47Z"/><path id="Path_117" data-name="Path 117" class="cls-4" d="M718.85,711h-.5a18.94,18.94,0,0,0-15.78,29.51l16.23-12Z"/><path id="Path_118" data-name="Path 118" class="cls-2" d="M718.8,728.51l-16.23,12a18.95,18.95,0,0,0,31.7-.38Z"/></g></svg>