<svg id="Laag_1" data-name="Laag 1" xmlns="http://www.w3.org/2000/svg" viewBox="0 0 851 868.33"><defs><style>.cls-1{fill:#ce000e;fill-opacity:0;}.cls-2{fill:none;stroke:#75767a;stroke-miterlimit:10;}.cls-3{fill:#75767a;}.cls-4,.cls-5{isolation:isolate;}.cls-5{font-size:18.41px;fill:#fff;font-family:SegoeUI-Bold, Segoe UI;font-weight:700;}.cls-6{letter-spacing:-0.02em;}.cls-7{letter-spacing:0em;}.cls-8{letter-spacing:-0.01em;}</style></defs><circle id="Ellipse_174" data-name="Ellipse 174" class="cls-1" cx="424.26" cy="440.11" r="17.6"/><circle id="Ellipse_194" data-name="Ellipse 194" class="cls-2" cx="422.7" cy="438.7" r="403.08"/><circle id="Ellipse_195" data-name="Ellipse 195" class="cls-2" cx="422.7" cy="438.7" r="281.18"/><circle id="Ellipse_196" data-name="Ellipse 196" class="cls-2" cx="422.7" cy="438.7" r="141.81"/><circle id="Ellipse_197" data-name="Ellipse 197" class="cls-3" cx="381.32" cy="302.32" r="17.61"/><circle id="Ellipse_198" data-name="Ellipse 198" class="cls-3" cx="541.42" cy="509.82" r="17.61"/><circle id="Ellipse_199" data-name="Ellipse 199" class="cls-3" cx="128.58" cy="722.2" r="17.61"/><circle id="Ellipse_200" data-name="Ellipse 200" class="cls-3" cx="237.75" cy="78.3" r="17.61"/><circle id="Ellipse_201" data-name="Ellipse 201" class="cls-3" cx="824.5" cy="424.22" r="17.61"/><circle id="Ellipse_202" data-name="Ellipse 202" class="cls-3" cx="739.98" cy="691.86" r="17.61"/><circle id="Ellipse_203" data-name="Ellipse 203" class="cls-3" cx="604.54" cy="800.22" r="17.61"/><circle id="Ellipse_204" data-name="Ellipse 204" class="cls-3" cx="357.49" cy="837.06" r="17.61"/><circle id="Ellipse_205" data-name="Ellipse 205" class="cls-3" cx="72.51" cy="644.19" r="17.61"/><circle id="Ellipse_206" data-name="Ellipse 206" class="cls-3" cx="24.83" cy="491.4" r="17.61"/><circle id="Ellipse_207" data-name="Ellipse 207" class="cls-3" cx="48.67" cy="279.03" r="17.61"/><circle id="Ellipse_208" data-name="Ellipse 208" class="cls-3" cx="386.74" cy="37.39" r="17.61"/><circle id="Ellipse_209" data-name="Ellipse 209" class="cls-3" cx="576.36" cy="66.65" r="17.61"/><circle id="Ellipse_210" data-name="Ellipse 210" class="cls-3" cx="710.73" cy="158.75" r="17.61"/><circle id="Ellipse_211" data-name="Ellipse 211" class="cls-3" cx="798.5" cy="295.28" r="17.61"/><circle id="Ellipse_212" data-name="Ellipse 212" class="cls-3" cx="121.27" cy="167.42" r="17.61"/><circle id="Ellipse_213" data-name="Ellipse 213" class="cls-3" cx="574.47" cy="206.43" r="17.61"/><circle id="Ellipse_214" data-name="Ellipse 214" class="cls-3" cx="492.93" cy="710.28" r="17.61"/><circle id="Ellipse_215" data-name="Ellipse 215" class="cls-3" cx="154.86" cy="359.21" r="17.61"/><g id="Group_88" data-name="Group 88"><path id="Path_23" data-name="Path 23" class="cls-3" d="M388.61,572.48a1.71,1.71,0,0,0-.1-2.41l0,0-15.94-13.95a2,2,0,0,0-2.6,0l-16,14.67a1.68,1.68,0,0,0-.12,2.39h0l0,0,.4.42a1.74,1.74,0,0,0,2.4.18l1.2-1.07v15.68a1.74,1.74,0,0,0,1.74,1.74h6.24a1.74,1.74,0,0,0,1.74-1.74v-11h7.95v11a1.64,1.64,0,0,0,1.55,1.73h6.69a1.75,1.75,0,0,0,1.75-1.73h0V573l.73.64c.41.36,1.26.07,1.91-.64Z"/></g><g id="Group_90" data-name="Group 90"><path id="Path_27" data-name="Path 27" class="cls-3" d="M580.45,419.67a4.61,4.61,0,0,0-.44-2c0-.16-.06-.31-.1-.47l-3.07-7.62,0-.06c-1.08-3.21-2.61-6.17-6.49-6.17H555.49c-4,0-5.38,3-6.48,6.15l-3.22,7.64a4.79,4.79,0,0,0-.73,2.5V422a4.73,4.73,0,0,0,.13,1.06,2,2,0,0,0-.13.68v7.05a1.88,1.88,0,0,0,1.88,1.88h3.88a1.88,1.88,0,0,0,1.87-1.88V427.3h20.36v3.53a1.88,1.88,0,0,0,1.87,1.88h3.66a1.86,1.86,0,0,0,1.87-1.88h0v-7.05a1.89,1.89,0,0,0-.12-.67,4.81,4.81,0,0,0,.12-1.07v-2.37Zm-29.16-9.38c1.22-3.45,2.21-4.51,4.2-4.51h14.83c2,0,3.08,1.18,4.2,4.49l2.24,4.55a6.9,6.9,0,0,0-2.38-.42H551.14a6.93,6.93,0,0,0-2.17.34Zm1.93,12.65h-4.11a1.34,1.34,0,0,1-1.3-1.38h0a1.34,1.34,0,0,1,1.3-1.3h4.1a1.34,1.34,0,0,1,1.3,1.37h0a1.33,1.33,0,0,1-1.3,1.3Zm14.48-.27h-9.54a.83.83,0,0,1-.84-.85h0a.85.85,0,0,1,.84-.85h9.54a.85.85,0,1,1,0,1.7Zm8.6.27h-4.1a1.34,1.34,0,0,1,0-2.68h4.1a1.34,1.34,0,1,1,.06,2.68h-.06Z"/></g><g id="Group_100" data-name="Group 100"><path id="Path_73" data-name="Path 73" class="cls-3" d="M407.62,30.18,404.5,17.87h1.68l1.46,6.23c.37,1.53.69,3.07.91,4.26h0c.2-1.23.58-2.69,1-4.28l1.65-6.21h1.66l1.5,6.25c.35,1.46.68,2.92.86,4.22h0c.26-1.35.61-2.72,1-4.26l1.63-6.21h1.63l-3.49,12.31h-1.66l-1.56-6.41a36.64,36.64,0,0,1-.8-4h0a36.68,36.68,0,0,1-.95,4l-1.75,6.41Z"/><path id="Path_74" data-name="Path 74" class="cls-3" d="M421.32,26.05a2.82,2.82,0,0,0,2.57,3.07,2.36,2.36,0,0,0,.46,0,5.75,5.75,0,0,0,2.45-.46l.27,1.16a7.39,7.39,0,0,1-2.94.55,4.11,4.11,0,0,1-4.35-4.46c0-2.67,1.57-4.77,4.15-4.77,2.89,0,3.66,2.54,3.66,4.16a4.56,4.56,0,0,1-.06.75ZM426,24.9a2.29,2.29,0,0,0-2.23-2.61,2.68,2.68,0,0,0-2.47,2.61Z"/><path id="Path_75" data-name="Path 75" class="cls-3" d="M429.58,24.09c0-1,0-1.93-.07-2.76h1.4l.06,1.74H431a2.66,2.66,0,0,1,2.45-1.94,1.82,1.82,0,0,1,.46.06v1.52a2.56,2.56,0,0,0-.55-.05,2.25,2.25,0,0,0-2.16,2.06,4.76,4.76,0,0,0-.07.75v4.72h-1.59Z"/><path id="Path_76" data-name="Path 76" class="cls-3" d="M437.22,25.4h0c.22-.32.53-.7.78-1l2.6-3.05h1.94L439.16,25l3.89,5.2h-2L438,26l-.82.91v3.33h-1.59v-13h1.59Z"/></g><g id="Group_101" data-name="Group 101"><path id="Path_77" data-name="Path 77" class="cls-3" d="M393.06,154.23l-4-12.31h1.71l1.92,6.06c.53,1.66,1,3.16,1.32,4.61h0c.35-1.43.86-3,1.41-4.59l2.08-6.09h1.7l-4.4,12.32Z"/><path id="Path_78" data-name="Path 78" class="cls-3" d="M400.21,148.15c0-1.05,0-1.94-.08-2.77h1.41l.06,1.74h.07a2.64,2.64,0,0,1,2.45-1.93,1.44,1.44,0,0,1,.46.05v1.52a2.6,2.6,0,0,0-.56-.06,2.25,2.25,0,0,0-2.15,2.07,4.78,4.78,0,0,0-.08.75v4.71h-1.58Z"/><path id="Path_79" data-name="Path 79" class="cls-3" d="M408.05,142.9a1,1,0,0,1-.91,1H407a1,1,0,0,1-1-.95v0a1,1,0,0,1,.95-1h.05a1,1,0,0,1,1,.92Zm-1.79,11.33v-8.84h1.61v8.84Z"/><path id="Path_80" data-name="Path 80" class="cls-3" d="M411.43,150.1a2.84,2.84,0,0,0,2.58,3.07,3.53,3.53,0,0,0,.46,0,5.67,5.67,0,0,0,2.44-.46l.28,1.15a7.23,7.23,0,0,1-2.94.56A4.11,4.11,0,0,1,409.9,150c0-2.67,1.57-4.77,4.14-4.77,2.89,0,3.66,2.54,3.66,4.16a4.74,4.74,0,0,1-.06.75Zm4.72-1.15a2.29,2.29,0,0,0-2.23-2.61,2.67,2.67,0,0,0-2.47,2.61Z"/><path id="Path_81" data-name="Path 81" class="cls-3" d="M419.7,147.78c0-.91,0-1.66-.08-2.39h1.43l.09,1.46h0a3.23,3.23,0,0,1,2.92-1.66c1.22,0,3.13.73,3.13,3.76v5.28h-1.61v-5.1c0-1.42-.53-2.61-2.05-2.61a2.29,2.29,0,0,0-2.16,1.65,2.65,2.65,0,0,0-.11.74v5.32h-1.61Z"/><path id="Path_82" data-name="Path 82" class="cls-3" d="M437.48,141.26V152c0,.78,0,1.68.08,2.28h-1.45L436,152.7h0a3.26,3.26,0,0,1-3,1.73c-2.14,0-3.79-1.8-3.79-4.49,0-2.95,1.81-4.75,4-4.75a3,3,0,0,1,2.67,1.35h0v-5.28ZM435.87,149a2.58,2.58,0,0,0-.07-.68,2.35,2.35,0,0,0-2.32-1.86c-1.66,0-2.65,1.46-2.65,3.41,0,1.8.88,3.28,2.61,3.28a2.42,2.42,0,0,0,2.36-1.92,2.35,2.35,0,0,0,.07-.7Z"/><path id="Path_83" data-name="Path 83" class="cls-3" d="M441.05,150.1a2.84,2.84,0,0,0,2.58,3.07,3.53,3.53,0,0,0,.46,0,5.67,5.67,0,0,0,2.44-.46l.28,1.15a7.23,7.23,0,0,1-2.94.56,4.11,4.11,0,0,1-4.35-4.46c0-2.67,1.57-4.77,4.14-4.77,2.89,0,3.66,2.54,3.66,4.16a4.74,4.74,0,0,1-.06.75Zm4.72-1.15a2.29,2.29,0,0,0-2.23-2.61,2.67,2.67,0,0,0-2.47,2.61Z"/><path id="Path_84" data-name="Path 84" class="cls-3" d="M449.32,147.78c0-.91,0-1.66-.08-2.39h1.43l.09,1.46h0a3.25,3.25,0,0,1,2.92-1.66c1.23,0,3.13.73,3.13,3.76v5.28h-1.61v-5.1c0-1.42-.53-2.61-2.05-2.61a2.28,2.28,0,0,0-2.15,1.65,2.08,2.08,0,0,0-.11.74v5.32h-1.61Z"/></g><g id="Group_102" data-name="Group 102"><path id="Path_85" data-name="Path 85" class="cls-3" d="M397.85,279.41h6.63v1.33h-5v4.09h4.66v1.32h-4.66v5.57h-1.59Z"/><path id="Path_86" data-name="Path 86" class="cls-3" d="M410.77,291.72l-.13-1.11h-.05a3.28,3.28,0,0,1-2.71,1.31,2.51,2.51,0,0,1-2.69-2.32,1.55,1.55,0,0,1,0-.22c0-2.13,1.9-3.3,5.32-3.29v-.18a1.82,1.82,0,0,0-1.58-2,2.06,2.06,0,0,0-.43,0,4.49,4.49,0,0,0-2.31.66l-.36-1.06a5.38,5.38,0,0,1,2.9-.78c2.71,0,3.37,1.84,3.37,3.61v3.31a11.57,11.57,0,0,0,.14,2.12Zm-.24-4.51c-1.75,0-3.74.28-3.74,2a1.42,1.42,0,0,0,1.3,1.54h.21a2.21,2.21,0,0,0,2.14-1.48,1.84,1.84,0,0,0,.1-.51Z"/><path id="Path_87" data-name="Path 87" class="cls-3" d="M414.69,285.27c0-.91,0-1.66-.08-2.39H416l.07,1.43h.06a3,3,0,0,1,2.78-1.63,2.61,2.61,0,0,1,2.5,1.77h0a3.62,3.62,0,0,1,1-1.15,3,3,0,0,1,2-.62c1.17,0,2.9.77,2.9,3.84v5.2h-1.57v-5c0-1.7-.62-2.73-1.92-2.73a2.11,2.11,0,0,0-1.9,1.47,2.72,2.72,0,0,0-.12.8v5.46h-1.58v-5.3c0-1.4-.62-2.42-1.84-2.42a2.19,2.19,0,0,0-2,1.6,2.12,2.12,0,0,0-.13.79v5.34h-1.57Z"/><path id="Path_88" data-name="Path 88" class="cls-3" d="M431.73,280.39a1,1,0,0,1-.91,1h-.11a1,1,0,0,1-1-.94v-.05a1,1,0,0,1,.95-1h.05a1,1,0,0,1,1,.92Zm-1.79,11.33v-8.84h1.61v8.84Z"/><path id="Path_89" data-name="Path 89" class="cls-3" d="M434.22,278.75h1.6v13h-1.6Z"/><path id="Path_90" data-name="Path 90" class="cls-3" d="M440.32,280.39a.94.94,0,0,1-.91,1h-.11a1,1,0,0,1-1-.94v-.05a1,1,0,0,1,.95-1h.05a1,1,0,0,1,1,.92Zm-1.79,11.33v-8.84h1.61v8.84Z"/><path id="Path_91" data-name="Path 91" class="cls-3" d="M443.71,287.59a2.82,2.82,0,0,0,2.57,3.07,2.36,2.36,0,0,0,.46,0,5.75,5.75,0,0,0,2.45-.46l.27,1.16a7.21,7.21,0,0,1-2.94.54,4.11,4.11,0,0,1-4.35-4.46c0-2.67,1.57-4.77,4.15-4.77,2.89,0,3.66,2.54,3.66,4.17a4.74,4.74,0,0,1-.06.75Zm4.71-1.15a2.29,2.29,0,0,0-2.23-2.61,2.67,2.67,0,0,0-2.47,2.61Z"/></g><circle id="Ellipse_240" data-name="Ellipse 240" cx="424.67" cy="435.94" r="37.58"/><g id="Steven" class="cls-4"><text class="cls-5" transform="translate(395.05 440.71)"><tspan class="cls-6">S</tspan><tspan class="cls-7" x="9.86" y="0">t</tspan><tspan x="16.96" y="0">e</tspan><tspan class="cls-8" x="26.92" y="0">v</tspan><tspan x="36.72" y="0">en</tspan></text></g></svg>